<?xml version="1.0" encoding="utf-8"?>
<!-- Generator: Adobe Illustrator 17.1.0, SVG Export Plug-In . SVG Version: 6.00 Build 0)  -->
<!DOCTYPE svg PUBLIC "-//W3C//DTD SVG 1.1//EN" "http://www.w3.org/Graphics/SVG/1.1/DTD/svg11.dtd">
<svg version="1.1" id="Слой_1" xmlns="http://www.w3.org/2000/svg" xmlns:xlink="http://www.w3.org/1999/xlink" x="0px" y="0px"
	 viewBox="0 0 146.2 147" enable-background="new 0 0 146.2 147" xml:space="preserve">
<circle fill="#205FAC" cx="73.5" cy="74" r="71.5"/>
<path fill="#FFFFFF" d="M109.7,37.6h0.2v15.7c0,0-0.6,6.7-11,6.5c-10.3-0.2-42.2,0-42.2,0s-7.8,0.2-9.4,4.1V49.6
	c0,0,1.1-8.6,11.3-8.6h39.8C98.4,41,104.4,41.3,109.7,37.6L109.7,37.6z M46.1,110.7L46.1,110.7V96.3c0,0,1.1-8.6,11.3-8.6h9.9v18.8
	c-6.7,0-11.8,0.1-11.8,0.1S47.8,106.7,46.1,110.7L46.1,110.7z M46.1,87.2L46.1,87.2c1.6-4,9.4-4.1,9.4-4.1s31.8-0.2,42.2,0
	s11-6.5,11-6.5V60.8c-5.3,3.4-11.5,3.5-11.5,3.5H57.5c-10.2,0-11.3,8.6-11.3,8.6V87.2L46.1,87.2z"/>
</svg>
